<svg width="35" height="44" viewBox="0 0 35 44" fill="none" xmlns="http://www.w3.org/2000/svg">
<path d="M28.5071 18.8154H10.5912C10.1956 18.8154 9.87457 19.1358 9.87457 19.5321C9.87457 19.9284 10.1956 20.2487 10.5912 20.2487H28.5071C28.9026 20.2487 29.2237 19.9284 29.2237 19.5321C29.2237 19.1358 28.9026 18.8154 28.5071 18.8154Z" fill="black"/>
<path d="M10.5912 14.5153H17.7575C18.1531 14.5153 18.4742 14.195 18.4742 13.7987C18.4742 13.4024 18.1531 13.082 17.7575 13.082H10.5912C10.1956 13.082 9.87457 13.4024 9.87457 13.7987C9.87457 14.195 10.1956 14.5153 10.5912 14.5153Z" fill="black"/>
<path d="M28.5071 24.5483H10.5912C10.1956 24.5483 9.87457 24.8687 9.87457 25.265C9.87457 25.6613 10.1956 25.9816 10.5912 25.9816H28.5071C28.9026 25.9816 29.2237 25.6613 29.2237 25.265C29.2237 24.8687 28.9026 24.5483 28.5071 24.5483Z" fill="black"/>
<path d="M28.5071 30.2812H10.5912C10.1956 30.2812 9.87457 30.6016 9.87457 30.9979C9.87457 31.3942 10.1956 31.7145 10.5912 31.7145H28.5071C28.9026 31.7145 29.2237 31.3942 29.2237 30.9979C29.2237 30.6016 28.9026 30.2812 28.5071 30.2812Z" fill="black"/>
<path d="M28.5071 36.0146H10.5912C10.1956 36.0146 9.87457 36.335 9.87457 36.7313C9.87457 37.1276 10.1956 37.4479 10.5912 37.4479H28.5071C28.9026 37.4479 29.2237 37.1276 29.2237 36.7313C29.2237 36.335 28.9026 36.0146 28.5071 36.0146Z" fill="black"/>
<path d="M31.3736 11.3522V0.899414H0.55835V40.3143H4.14152V43.8975H34.9568V14.9354L31.3736 11.3522ZM24.9239 6.92917L31.3736 13.3789L32.5102 14.5155H24.9239V6.92917ZM1.99162 38.881V2.33268H29.9403V9.91897L24.504 4.48258H4.14152V38.881H1.99162ZM5.57479 42.4642V40.3143V5.91585H23.4906V15.9487H33.5235V42.4642H5.57479Z" fill="black"/>
</svg>
