<svg width="32" height="46" viewBox="0 0 32 46" fill="none" xmlns="http://www.w3.org/2000/svg">
<mask id="path-1-inside-1" fill="white">
<path fill-rule="evenodd" clip-rule="evenodd" d="M15.9426 45.0209C15.9426 45.0209 31.4915 24.3594 31.4915 15.772C31.4915 7.18459 24.53 0.223145 15.9426 0.223145C7.35525 0.223145 0.393799 7.18459 0.393799 15.772C0.393799 24.3594 15.9426 45.0209 15.9426 45.0209ZM15.9426 24.279C20.3262 24.279 23.8799 20.7254 23.8799 16.3418C23.8799 11.9582 20.3262 8.40459 15.9426 8.40459C11.559 8.40459 8.0054 11.9582 8.0054 16.3418C8.0054 20.7254 11.559 24.279 15.9426 24.279Z"/>
</mask>
<path d="M15.9426 45.0209L14.3446 46.2235L15.9426 48.347L17.5407 46.2235L15.9426 45.0209ZM29.4915 15.772C29.4915 17.4489 28.6921 20.0073 27.2474 23.1238C25.8383 26.1637 23.9419 29.4739 22.0196 32.5591C20.1015 35.6375 18.1802 38.4562 16.7366 40.5073C16.0154 41.5319 15.4151 42.3628 14.996 42.9362C14.7865 43.2229 14.6224 43.445 14.5113 43.5948C14.4557 43.6696 14.4134 43.7263 14.3853 43.7639C14.3713 43.7827 14.3608 43.7967 14.354 43.8058C14.3505 43.8104 14.348 43.8137 14.3465 43.8158C14.3457 43.8168 14.3451 43.8176 14.3448 43.818C14.3447 43.8182 14.3446 43.8183 14.3445 43.8184C14.3445 43.8184 14.3446 43.8183 15.9426 45.0209C17.5407 46.2235 17.5408 46.2233 17.5411 46.223C17.5412 46.2228 17.5415 46.2224 17.5419 46.222C17.5425 46.2211 17.5433 46.22 17.5444 46.2185C17.5466 46.2156 17.5498 46.2114 17.5538 46.206C17.562 46.1952 17.5738 46.1794 17.5891 46.1589C17.6199 46.1177 17.6649 46.0574 17.7232 45.9788C17.8398 45.8217 18.0098 45.5916 18.2255 45.2965C18.6567 44.7064 19.2711 43.856 20.0077 42.8095C21.4795 40.7182 23.4454 37.8348 25.4145 34.6744C27.3794 31.5207 29.3702 28.0554 30.8765 24.8061C32.3472 21.6333 33.4915 18.3887 33.4915 15.772H29.4915ZM15.9426 2.22314C23.4254 2.22314 29.4915 8.28916 29.4915 15.772H33.4915C33.4915 6.08002 25.6346 -1.77686 15.9426 -1.77686V2.22314ZM2.3938 15.772C2.3938 8.28916 8.45982 2.22314 15.9426 2.22314V-1.77686C6.25068 -1.77686 -1.6062 6.08002 -1.6062 15.772H2.3938ZM15.9426 45.0209C17.5407 43.8183 17.5407 43.8184 17.5407 43.8184C17.5406 43.8183 17.5406 43.8182 17.5404 43.818C17.5401 43.8176 17.5396 43.8168 17.5388 43.8158C17.5372 43.8137 17.5347 43.8104 17.5313 43.8058C17.5245 43.7967 17.514 43.7827 17.4999 43.7639C17.4718 43.7263 17.4295 43.6696 17.3739 43.5948C17.2628 43.445 17.0987 43.2229 16.8892 42.9362C16.4702 42.3628 15.8698 41.5319 15.1487 40.5073C13.7051 38.4562 11.7837 35.6375 9.86568 32.5591C7.94339 29.4739 6.047 26.1637 4.63783 23.1238C3.19318 20.0073 2.3938 17.4489 2.3938 15.772H-1.6062C-1.6062 18.3887 -0.461974 21.6333 1.00878 24.8061C2.51501 28.0554 4.50583 31.5207 6.47074 34.6744C8.4399 37.8348 10.4058 40.7182 11.8776 42.8095C12.6141 43.856 13.2285 44.7064 13.6598 45.2965C13.8755 45.5916 14.0454 45.8217 14.1621 45.9788C14.2204 46.0574 14.2654 46.1177 14.2961 46.1589C14.3115 46.1794 14.3233 46.1952 14.3314 46.206C14.3355 46.2114 14.3386 46.2156 14.3408 46.2185C14.3419 46.22 14.3428 46.2211 14.3434 46.222C14.3437 46.2224 14.344 46.2228 14.3442 46.223C14.3444 46.2233 14.3446 46.2235 15.9426 45.0209ZM21.8799 16.3418C21.8799 19.6209 19.2217 22.279 15.9426 22.279V26.279C21.4308 26.279 25.8799 21.83 25.8799 16.3418H21.8799ZM15.9426 10.4046C19.2217 10.4046 21.8799 13.0628 21.8799 16.3418H25.8799C25.8799 10.8536 21.4308 6.40459 15.9426 6.40459V10.4046ZM10.0054 16.3418C10.0054 13.0628 12.6636 10.4046 15.9426 10.4046V6.40459C10.4544 6.40459 6.0054 10.8536 6.0054 16.3418H10.0054ZM15.9426 22.279C12.6636 22.279 10.0054 19.6209 10.0054 16.3418H6.0054C6.0054 21.83 10.4544 26.279 15.9426 26.279V22.279Z" fill="black" mask="url(#path-1-inside-1)"/>
</svg>
