<svg width="75" height="35" viewBox="0 0 75 35" fill="none" xmlns="http://www.w3.org/2000/svg">
<path d="M2.21975 34.8963C2.56812 34.8963 2.90202 34.7579 3.14785 34.5118L14.0306 23.6286L20.3206 29.9186C20.8336 30.4306 21.6641 30.4306 22.1765 29.9186L35.6842 16.4109L47.2233 27.95C47.736 28.4624 48.5661 28.4624 49.0792 27.95L71.7729 5.25632V7.33763C71.7729 8.06263 72.3601 8.64992 73.0851 8.64992C73.8098 8.64992 74.3974 8.06263 74.3974 7.33763V2.08816C74.3941 1.93107 74.3639 1.77628 74.3057 1.63069C74.288 1.58534 74.2673 1.54195 74.2449 1.49857C74.1956 1.40064 74.1338 1.30894 74.0615 1.22612C73.9442 1.08119 73.7947 0.966822 73.6235 0.892548C73.611 0.892548 73.6024 0.877431 73.5903 0.873158C73.444 0.815645 73.2882 0.785081 73.1315 0.782452C73.1131 0.783766 73.1009 0.775879 73.0851 0.775879H67.836C67.111 0.775879 66.5237 1.36416 66.5237 2.08816C66.5237 2.81283 67.111 3.40045 67.836 3.40045H69.917L48.1511 25.1667L36.6119 13.6276C36.0996 13.1159 35.2688 13.1159 34.7561 13.6276L21.2487 27.135L14.9591 20.845C14.4461 20.3333 13.6156 20.3333 13.1032 20.845L1.29231 32.6559C0.917654 33.0319 0.8046 33.5962 1.0077 34.0865C1.21081 34.5768 1.68932 34.8963 2.21975 34.8963Z" fill="black"/>
</svg>
